<?xml version="1.0" standalone="no"?>
<!DOCTYPE svg PUBLIC "-//W3C//DTD SVG 20010904//EN"
 "http://www.w3.org/TR/2001/REC-SVG-20010904/DTD/svg10.dtd">
<svg version="1.0" xmlns="http://www.w3.org/2000/svg"
 width="264.000000pt" height="191.000000pt" viewBox="0 0 264.000000 191.000000"
 preserveAspectRatio="xMidYMid meet">

<g transform="translate(0.000000,191.000000) scale(0.100000,-0.100000)"
fill="#000000" stroke="none">
<path d="M2181 1894 c0 -11 3 -14 6 -6 3 7 2 16 -1 19 -3 4 -6 -2 -5 -13z"/>
<path d="M2223 1855 c0 -33 2 -45 4 -27 2 18 2 45 0 60 -2 15 -4 0 -4 -33z"/>
<path d="M2326 1893 c-6 -14 -5 -15 5 -6 7 7 10 15 7 18 -3 3 -9 -2 -12 -12z"/>
<path d="M2280 1890 c-9 -6 -10 -10 -3 -10 6 0 15 5 18 10 8 12 4 12 -15 0z"/>
<path d="M2386 1824 l7 -77 -79 7 c-55 5 -75 4 -64 -3 8 -6 30 -11 47 -11 32
0 33 -1 31 -45 l-2 -45 -46 0 -46 0 0 -59 c1 -58 1 -58 27 -51 15 4 33 4 40
-1 21 -13 65 -11 77 4 6 7 12 30 14 52 3 37 6 40 38 46 29 5 26 7 -22 8 -31 0
-59 4 -61 9 -2 4 -2 24 0 45 4 28 10 37 24 37 10 0 24 -9 31 -20 15 -24 28
-26 28 -5 0 8 9 15 20 15 17 0 20 -7 20 -42 0 -24 2 -78 3 -120 l2 -78 -28 0
c-35 0 -51 -36 -44 -101 5 -42 3 -47 -18 -57 -18 -8 -25 -8 -28 1 -3 9 -13 8
-38 -4 -22 -10 -43 -13 -61 -8 l-28 7 0 -53 c0 -33 5 -55 13 -58 7 -3 5 -6 -5
-6 -12 -1 -18 7 -19 22 -1 16 -2 18 -6 5 -2 -10 -14 -18 -26 -19 -21 0 -21 -1
-2 -9 16 -7 13 -9 -17 -9 -34 -1 -56 -20 -25 -22 6 -1 1 -4 -13 -8 -14 -4 -26
-15 -28 -27 -2 -16 5 -23 33 -31 19 -6 33 -7 29 -2 -3 5 6 9 20 9 14 0 26 4
26 9 0 24 280 45 295 21 9 -14 22 -13 28 4 3 8 -1 17 -9 20 -8 3 -12 2 -9 -4
6 -10 -58 -2 -90 12 -13 5 -5 6 23 2 26 -4 55 -1 73 6 41 17 56 1 29 -30 -11
-13 -20 -27 -20 -32 0 -5 -4 -6 -10 -3 -9 6 -14 -8 -11 -27 0 -5 -3 -8 -9 -8
-5 0 -10 8 -10 18 0 13 -2 14 -9 4 -4 -8 -11 -13 -15 -13 -3 1 -8 0 -11 0 -3
-1 -9 -2 -14 -3 -26 -3 -22 -18 4 -15 55 4 115 -1 115 -10 0 -5 -14 -8 -31 -7
-18 0 -34 -5 -36 -11 -3 -10 10 -13 49 -12 29 1 58 0 63 -1 38 -9 48 17 14 38
-14 9 -24 10 -33 3 -7 -6 -16 -7 -22 -2 -5 5 -18 11 -29 14 -13 3 -9 5 12 6
29 1 31 3 27 31 -5 27 -2 30 20 30 24 0 26 -4 27 -42 0 -31 3 -37 8 -24 4 11
5 36 1 55 -3 20 -3 49 1 66 6 20 4 32 -4 37 -17 11 -37 10 -37 -3 0 -5 -5 -7
-10 -4 -6 4 -8 10 -6 14 3 4 -3 7 -12 7 -76 0 -84 3 -78 29 3 13 28 60 55 105
45 76 49 79 60 58 6 -13 9 -15 6 -5 -3 13 0 17 12 15 10 -2 19 5 21 15 3 16
-21 24 -53 17 -5 -1 -26 -4 -46 -6 l-36 -5 -7 77 c-13 155 -11 162 41 148 17
-5 22 -15 25 -55 3 -46 1 -49 -21 -49 -19 0 -21 3 -12 14 9 11 8 22 -3 48 -14
32 -14 32 -15 6 -1 -14 5 -28 12 -31 9 -3 7 -9 -5 -24 -25 -28 -23 -33 15 -33
21 0 36 -7 45 -20 6 -11 18 -17 26 -14 10 4 16 -3 18 -23 l3 -28 6 30 c4 27 2
31 -20 33 -13 1 -26 4 -29 6 -2 3 -4 34 -5 71 0 48 3 69 14 75 8 6 15 6 17 0
6 -16 32 -11 32 5 0 19 -76 21 -83 3 -3 -8 -6 -6 -6 5 -1 14 -11 17 -60 17
-33 0 -62 4 -65 9 -4 5 -9 36 -12 70 -4 37 -12 62 -21 65 -11 5 -13 -7 -7 -70z
m-19 -256 c-2 -13 -4 -5 -4 17 -1 22 1 32 4 23 2 -10 2 -28 0 -40z m-80 20
c-3 -8 -6 -5 -6 6 -1 11 2 17 5 13 3 -3 4 -12 1 -19z m20 -10 c-3 -8 -6 -5 -6
6 -1 11 2 17 5 13 3 -3 4 -12 1 -19z m160 -160 c-2 -13 -4 -5 -4 17 -1 22 1
32 4 23 2 -10 2 -28 0 -40z m10 -100 c-3 -8 -6 -5 -6 6 -1 11 2 17 5 13 3 -3
4 -12 1 -19z m73 -93 c0 -8 -7 -15 -15 -15 -16 0 -20 12 -8 23 11 12 23 8 23
-8z m36 -3 c-3 -3 0 -12 7 -20 9 -13 9 -14 0 -8 -7 4 -18 16 -23 26 -9 16 -8
18 5 14 9 -4 13 -9 11 -12z m-232 -40 c8 -13 -151 -33 -177 -21 -19 8 -17 9
11 5 19 -4 32 -1 32 5 0 6 9 9 19 6 11 -2 35 -1 53 3 46 11 56 11 62 2z m-218
-41 c-9 -8 -18 -12 -22 -9 -9 10 3 25 21 25 14 0 14 -2 1 -16z m424 -16 c0 -8
-4 -15 -10 -15 -5 0 -7 7 -4 15 4 8 8 15 10 15 2 0 4 -7 4 -15z m-33 -71 c-3
-3 -12 -4 -19 -1 -8 3 -5 6 6 6 11 1 17 -2 13 -5z"/>
<path d="M2545 1870 c4 -6 -7 -10 -24 -10 -26 0 -31 -4 -31 -25 0 -14 4 -25 9
-25 5 0 7 9 4 20 -4 14 0 20 11 20 9 0 13 -6 10 -14 -3 -8 -1 -23 5 -33 9 -15
10 -13 11 14 0 24 4 31 14 27 11 -4 13 0 9 15 -3 12 -10 21 -15 21 -5 0 -6 -4
-3 -10z"/>
<path d="M2182 1845 c0 -16 2 -22 5 -12 2 9 2 23 0 30 -3 6 -5 -1 -5 -18z"/>
<path d="M2123 1795 c0 -38 2 -53 4 -32 2 20 2 52 0 70 -2 17 -4 1 -4 -38z"/>
<path d="M294 1831 c1 -17 26 -28 26 -11 0 6 -4 9 -9 5 -5 -3 -11 0 -14 7 -2
9 -4 8 -3 -1z"/>
<path d="M778 1845 c-2 -3 -2 -26 2 -53 9 -53 6 -64 -15 -56 -11 5 -12 11 -4
26 6 10 8 27 6 36 -4 13 -5 13 -6 -4 0 -11 -8 -29 -16 -40 -8 -10 -14 -23 -15
-29 0 -5 5 -3 11 5 8 12 10 8 6 -17 -2 -18 0 -34 5 -35 4 -2 4 -18 -1 -35 -6
-20 -6 -35 0 -38 5 -4 9 6 10 22 l1 28 8 -25 c6 -23 8 -21 12 15 5 39 5 39 6
-9 3 -66 12 -53 21 31 l8 68 2 -66 c1 -45 -3 -70 -13 -78 -7 -6 -45 -10 -85
-10 -40 1 -75 -2 -78 -5 -4 -3 37 -6 90 -6 66 0 98 -4 104 -12 4 -7 13 -38 19
-68 7 -33 12 -45 13 -30 2 23 3 24 11 5 7 -16 9 -11 9 22 1 23 6 44 14 46 10
4 10 6 0 6 -7 1 -13 9 -13 19 0 14 -2 15 -9 2 -6 -8 -7 -19 -5 -25 3 -5 -4 3
-16 18 -22 27 -35 107 -18 107 4 0 5 6 2 13 -3 8 4 13 20 13 18 0 23 -5 21
-18 -2 -10 0 -16 6 -13 5 4 9 24 9 47 0 32 -3 39 -15 34 -10 -4 -15 1 -15 15
0 11 5 17 10 14 6 -3 10 -2 10 4 0 5 -5 13 -11 16 -6 4 -8 14 -5 22 4 9 -1 17
-14 20 -11 3 -17 9 -14 14 3 5 -2 6 -10 3 -9 -3 -16 -14 -16 -23 0 -9 -4 -22
-9 -30 -6 -9 -8 -5 -8 14 0 26 -15 50 -25 40z m70 -55 c0 -19 -4 -30 -13 -30
-11 0 -12 6 -4 30 6 17 12 30 13 30 2 0 3 -13 4 -30z m7 -68 c-3 -3 -11 0 -18
7 -9 10 -8 11 6 5 10 -3 15 -9 12 -12z"/>
<path d="M880 1846 c0 -2 11 -6 25 -8 13 -3 22 -1 19 3 -5 9 -44 13 -44 5z"/>
<path d="M1476 1690 c3 -91 8 -167 10 -169 8 -8 2 274 -7 304 -5 17 -6 -39 -3
-135z"/>
<path d="M211 1822 c0 -13 -5 -20 -11 -17 -15 9 -11 -17 5 -39 14 -19 15 -18
16 10 1 17 3 22 6 11 2 -9 9 -15 14 -11 5 3 8 2 7 -3 -1 -4 1 -18 6 -31 5 -15
2 -27 -8 -38 -15 -14 -16 -14 -17 3 0 14 -2 13 -10 -5 -5 -13 -13 -21 -18 -17
-5 3 -12 1 -15 -4 -7 -11 13 -9 32 2 6 5 12 5 12 1 0 -4 9 1 21 12 16 14 19
26 14 50 -3 18 -1 35 4 38 5 3 9 0 8 -7 0 -6 1 -25 2 -42 3 -29 3 -29 10 -5 8
29 3 70 -10 70 -4 0 -6 9 -4 20 3 16 -2 20 -20 20 -18 0 -23 -4 -19 -15 4 -8
1 -15 -4 -15 -6 0 -13 8 -15 18 -3 12 -5 11 -6 -6z"/>
<path d="M443 1832 c-13 -8 -12 -160 1 -181 5 -8 -2 -11 -23 -9 -30 2 -31 4
-32 48 -1 60 -16 152 -19 120 -3 -30 -1 -104 4 -145 2 -16 1 -20 -1 -7 -2 12
-9 22 -14 22 -7 0 -9 29 -7 75 2 55 0 75 -9 75 -9 0 -13 -17 -14 -47 -1 -47
-1 -47 -10 -15 -5 17 -11 32 -13 32 -2 0 -2 -28 -1 -62 2 -34 -1 -70 -6 -80
-7 -14 -6 -16 6 -12 8 4 15 14 16 23 0 12 2 12 9 -4 5 -11 9 -14 9 -7 1 6 5
12 9 12 12 0 -2 -77 -20 -119 -11 -25 -17 -29 -21 -17 -4 9 -11 16 -17 16 -6
0 -4 -7 4 -16 9 -8 16 -19 16 -24 0 -4 9 -10 21 -13 16 -4 18 -3 9 8 -9 11 -8
23 1 50 14 38 19 40 52 24 20 -9 21 -9 4 4 -11 9 -14 18 -8 21 5 4 12 2 16 -4
4 -6 11 -7 17 -4 7 4 8 -4 3 -25 -4 -20 -3 -31 4 -31 6 0 11 15 12 33 0 17 3
26 6 19 5 -13 23 -7 23 9 0 6 -5 7 -11 3 -7 -4 -9 0 -5 12 7 25 11 95 5 113
-3 11 9 17 44 22 57 9 59 10 46 29 -7 11 -11 12 -17 3 -4 -6 -16 -11 -27 -10
-14 2 -22 12 -26 37 l-6 35 -2 -37 c0 -21 -6 -38 -12 -38 -7 0 -10 14 -7 35 2
19 4 35 3 35 0 0 -5 -4 -12 -8z m-106 -124 c-3 -8 -6 -5 -6 6 -1 11 2 17 5 13
3 -3 4 -12 1 -19z m106 -96 c-4 -10 -8 -11 -13 -2 -6 9 -9 9 -13 -1 -4 -10 -6
-9 -6 3 -1 11 6 16 18 15 12 -1 17 -6 14 -15z"/>
<path d="M497 1833 c-3 -5 -1 -17 3 -27 6 -19 7 -19 12 2 7 26 28 29 28 5 0
-15 2 -16 10 -3 16 24 12 30 -19 30 -17 0 -32 -3 -34 -7z"/>
<path d="M572 1810 c0 -19 2 -27 5 -17 2 9 2 25 0 35 -3 9 -5 1 -5 -18z"/>
<path d="M612 1812 c2 -16 12 -31 26 -37 20 -9 22 -16 22 -92 0 -45 5 -85 10
-88 12 -7 13 170 1 200 -5 12 -4 26 3 34 9 11 8 13 -4 9 -8 -2 -16 -11 -16
-19 -1 -8 -2 -20 -3 -26 0 -7 -6 -13 -11 -13 -6 0 -8 10 -4 24 4 16 1 25 -11
30 -13 5 -16 0 -13 -22z"/>
<path d="M695 1830 c-3 -5 -1 -10 4 -10 6 0 11 5 11 10 0 6 -2 10 -4 10 -3 0
-8 -4 -11 -10z"/>
<path d="M946 1833 c-3 -3 -6 -11 -6 -16 0 -6 3 -7 7 -4 3 4 12 -1 19 -11 12
-15 12 -15 7 6 -6 25 -17 35 -27 25z"/>
<path d="M1440 1809 c0 -16 4 -28 9 -25 8 5 3 56 -5 56 -2 0 -4 -14 -4 -31z"/>
<path d="M2612 1820 c0 -14 2 -19 5 -12 2 6 2 18 0 25 -3 6 -5 1 -5 -13z"/>
<path d="M412 1810 c0 -14 2 -19 5 -12 2 6 2 18 0 25 -3 6 -5 1 -5 -13z"/>
<path d="M592 1805 c0 -16 2 -22 5 -12 2 9 2 23 0 30 -3 6 -5 -1 -5 -18z"/>
<path d="M715 1809 c-4 -6 -12 -8 -19 -6 -7 3 -10 -10 -8 -42 5 -88 6 -88 20
-58 6 16 8 25 2 22 -17 -10 -11 57 7 77 9 10 13 18 10 18 -3 0 -9 -5 -12 -11z"/>
<path d="M2556 1803 c-6 -14 -5 -15 5 -6 7 7 10 15 7 18 -3 3 -9 -2 -12 -12z"/>
<path d="M1554 1685 c0 -71 1 -99 3 -62 2 37 2 96 0 130 -2 34 -3 4 -3 -68z"/>
<path d="M950 1766 c0 -8 4 -17 9 -20 5 -4 7 3 4 14 -6 23 -13 26 -13 6z"/>
<path d="M990 1741 c0 -14 -4 -20 -11 -15 -7 4 -10 2 -8 -5 7 -19 21 -18 33 1
8 13 7 21 -2 30 -9 9 -12 7 -12 -11z"/>
<path d="M1448 1693 c5 -76 10 -83 11 -15 0 34 -2 62 -7 62 -4 0 -6 -21 -4
-47z"/>
<path d="M2274 1706 c-3 -8 -4 -21 -1 -28 3 -8 6 -6 6 6 1 12 6 16 17 12 10
-4 14 -1 12 6 -7 19 -27 21 -34 4z"/>
<path d="M2364 1693 c-2 -23 -1 -23 13 -6 14 17 14 17 9 0 -4 -11 -2 -16 5
-12 14 10 7 38 -11 40 -10 2 -16 -6 -16 -22z"/>
<path d="M272 1694 c-26 -18 -28 -41 -7 -64 12 -13 13 -23 4 -48 -6 -18 -14
-32 -18 -32 -3 0 -23 14 -44 31 -20 17 -37 26 -37 20 0 -5 12 -18 28 -29 32
-23 80 -48 69 -37 -4 5 -1 18 6 29 23 35 27 66 9 66 -8 0 -12 3 -9 7 4 3 3 11
-3 17 -5 7 -5 17 0 26 9 13 10 13 10 0 1 -11 3 -11 11 3 15 25 7 30 -19 11z"/>
<path d="M2612 1687 c-7 -8 -7 -18 -2 -27 8 -12 10 -12 10 3 0 10 5 15 10 12
6 -3 10 -2 10 4 0 17 -17 22 -28 8z"/>
<path d="M722 1674 c-1 -12 -5 -37 -8 -55 -5 -26 -4 -31 5 -23 7 7 11 29 8 55
-2 24 -4 34 -5 23z"/>
<path d="M2410 1682 c0 -4 9 -8 20 -9 11 -1 20 2 20 8 0 5 -9 9 -20 9 -11 0
-20 -4 -20 -8z"/>
<path d="M2183 1645 c0 -22 2 -30 4 -17 2 12 2 30 0 40 -3 9 -5 -1 -4 -23z"/>
<path d="M983 1590 c0 -41 2 -58 4 -37 2 20 2 54 0 75 -2 20 -4 3 -4 -38z"/>
<path d="M2612 1622 l-23 -37 26 28 c14 15 25 32 25 38 0 14 -3 11 -28 -29z"/>
<path d="M1382 1630 c0 -14 2 -19 5 -12 2 6 2 18 0 25 -3 6 -5 1 -5 -13z"/>
<path d="M166 1628 c3 -5 10 -6 15 -3 13 9 11 12 -6 12 -8 0 -12 -4 -9 -9z"/>
<path d="M324 1623 c-1 -10 -4 -27 -8 -38 -5 -13 -2 -11 8 5 17 27 20 50 8 50
-4 0 -8 -8 -8 -17z"/>
<path d="M892 1610 c0 -14 2 -19 5 -12 2 6 2 18 0 25 -3 6 -5 1 -5 -13z"/>
<path d="M567 1586 c-62 -17 -77 -37 -75 -106 l2 -55 3 58 c4 53 7 60 36 77
18 11 47 20 65 20 17 0 32 5 32 10 0 12 -3 12 -63 -4z"/>
<path d="M2615 1590 c-3 -6 1 -7 9 -4 18 7 21 14 7 14 -6 0 -13 -4 -16 -10z"/>
<path d="M2420 1582 c0 -7 5 -12 10 -12 6 0 10 -5 10 -11 0 -5 -4 -8 -9 -5 -5
3 -11 -4 -15 -17 -9 -34 -7 -40 9 -27 8 7 12 16 10 21 -3 4 2 12 10 16 14 8
13 12 -5 28 -11 10 -20 13 -20 7z"/>
<path d="M1381 1564 c0 -11 3 -14 6 -6 3 7 2 16 -1 19 -3 4 -6 -2 -5 -13z"/>
<path d="M2124 1460 c0 -63 1 -89 3 -57 2 31 2 83 0 115 -2 31 -3 5 -3 -58z"/>
<path d="M2525 1560 c3 -5 8 -10 11 -10 2 0 4 5 4 10 0 6 -5 10 -11 10 -5 0
-7 -4 -4 -10z"/>
<path d="M2553 1539 c-1 -16 2 -29 7 -29 12 0 13 47 3 53 -5 3 -9 -8 -10 -24z"/>
<path d="M396 1545 c-9 -26 -7 -32 5 -12 6 10 9 21 6 23 -2 3 -7 -2 -11 -11z"/>
<path d="M2397 1553 c-10 -9 -9 -23 1 -23 5 0 9 7 9 15 0 17 -1 18 -10 8z"/>
<path d="M1553 1505 c0 -22 2 -30 4 -17 2 12 2 30 0 40 -3 9 -5 -1 -4 -23z"/>
<path d="M2526 1527 c3 -10 9 -15 12 -12 3 3 0 11 -7 18 -10 9 -11 8 -5 -6z"/>
<path d="M2585 1530 c3 -5 8 -10 11 -10 2 0 4 5 4 10 0 6 -5 10 -11 10 -5 0
-7 -4 -4 -10z"/>
<path d="M415 1508 c-13 -28 -37 -37 -30 -11 4 11 1 9 -6 -4 -7 -13 -17 -23
-23 -23 -14 0 15 -20 30 -20 12 0 51 66 43 74 -2 3 -9 -5 -14 -16z"/>
<path d="M2225 1429 c0 -79 2 -87 12 -62 13 30 10 130 -4 144 -4 4 -8 -33 -8
-82z"/>
<path d="M453 1495 c0 -8 4 -12 9 -9 5 3 6 10 3 15 -9 13 -12 11 -12 -6z"/>
<path d="M1487 1469 c3 -24 7 -46 9 -48 9 -10 3 65 -5 78 -6 10 -8 -1 -4 -30z"/>
<path d="M2293 1503 c-21 -8 -17 -98 5 -114 14 -11 15 -11 5 1 -18 20 -16 86
3 104 15 16 11 19 -13 9z"/>
<path d="M2330 1506 c0 -4 7 -18 16 -31 9 -14 14 -36 12 -50 -3 -14 -1 -28 3
-31 5 -3 9 15 9 39 0 31 -6 49 -20 62 -11 10 -20 15 -20 11z"/>
<path d="M115 1480 c10 -11 20 -20 23 -20 3 0 -3 9 -13 20 -10 11 -20 20 -23
20 -3 0 3 -9 13 -20z"/>
<path d="M1454 1466 c-3 -14 -1 -33 5 -43 8 -15 10 -10 11 25 0 47 -6 55 -16
18z"/>
<path d="M422 1458 c-19 -19 -14 -42 11 -57 l22 -14 -20 22 c-16 18 -17 25 -7
42 14 22 12 25 -6 7z"/>
<path d="M160 1446 c0 -2 8 -10 18 -17 15 -13 16 -12 3 4 -13 16 -21 21 -21
13z"/>
<path d="M458 1428 c16 -8 22 -20 22 -46 0 -30 -3 -34 -21 -29 -11 3 -32 2
-47 -3 -15 -5 -64 -19 -110 -31 -61 -16 -80 -25 -72 -33 7 -7 13 -7 18 -1 4 6
14 11 22 12 14 1 181 40 208 49 20 6 15 72 -7 84 -11 5 -23 10 -28 9 -4 0 2
-5 15 -11z"/>
<path d="M914 1428 c-4 -6 -3 -8 3 -5 6 4 19 -3 29 -15 18 -21 18 -21 0 -15
-14 6 -17 3 -12 -8 3 -9 0 -15 -9 -15 -8 0 -15 -5 -15 -10 0 -6 13 -4 30 5 35
18 37 24 10 53 -24 25 -26 26 -36 10z"/>
<path d="M982 1410 c0 -19 2 -27 5 -17 2 9 2 25 0 35 -3 9 -5 1 -5 -18z"/>
<path d="M1552 1410 c0 -19 2 -27 5 -17 2 9 2 25 0 35 -3 9 -5 1 -5 -18z"/>
<path d="M2611 1414 c0 -11 3 -14 6 -6 3 7 2 16 -1 19 -3 4 -6 -2 -5 -13z"/>
<path d="M148 1413 c7 -3 16 -2 19 1 4 3 -2 6 -13 5 -11 0 -14 -3 -6 -6z"/>
<path d="M870 1386 c0 -20 2 -36 4 -36 8 0 12 61 4 66 -4 3 -8 -11 -8 -30z"/>
<path d="M123 1385 c7 -13 13 -20 15 -16 2 5 13 6 25 3 19 -5 20 -3 9 11 -8 9
-20 13 -28 10 -8 -3 -14 0 -14 6 0 6 -4 11 -9 11 -5 0 -4 -11 2 -25z"/>
<path d="M212 1393 c-6 -3 -9 -9 -6 -15 4 -6 10 -5 15 3 6 10 10 7 18 -11 6
-15 10 -19 10 -9 1 20 -20 38 -37 32z"/>
<path d="M70 1386 c0 -2 8 -10 18 -17 15 -13 16 -12 3 4 -13 16 -21 21 -21 13z"/>
<path d="M1460 1320 c0 -40 3 -70 7 -67 7 7 5 129 -3 136 -2 2 -4 -29 -4 -69z"/>
<path d="M2621 1374 c0 -11 3 -14 6 -6 3 7 2 16 -1 19 -3 4 -6 -2 -5 -13z"/>
<path d="M891 1364 c0 -11 3 -14 6 -6 3 7 2 16 -1 19 -3 4 -6 -2 -5 -13z"/>
<path d="M1490 1343 c0 -23 5 -45 10 -48 13 -8 13 55 0 75 -7 11 -10 4 -10
-27z"/>
<path d="M2565 1324 l-40 -36 43 32 c36 27 49 40 40 40 -2 0 -21 -16 -43 -36z"/>
<path d="M945 1340 c-4 -6 -1 -9 5 -8 7 2 17 -6 23 -16 25 -43 24 -42 225 -38
158 4 196 2 204 -9 7 -11 8 -9 6 6 -2 14 -14 22 -43 27 -60 10 -143 9 -150 -2
-3 -5 -11 -10 -16 -10 -6 0 -7 5 -4 10 4 6 -14 10 -47 9 -50 -2 -51 -2 -18 -9
23 -6 6 -7 -50 -5 -101 5 -90 3 -90 16 0 11 -24 39 -34 39 -3 0 -8 -5 -11 -10z"/>
<path d="M856 1323 c-3 -8 2 -13 13 -13 10 0 18 6 18 13 0 8 -6 14 -13 14 -7
0 -15 -6 -18 -14z"/>
<path d="M2088 1333 c6 -2 18 -2 25 0 6 3 1 5 -13 5 -14 0 -19 -2 -12 -5z"/>
<path d="M1762 1323 c-56 -2 -101 -7 -98 -11 2 -4 -19 -5 -48 -4 l-53 4 0 -34
c0 -18 2 -25 4 -15 4 15 17 17 93 17 61 0 90 4 92 12 3 8 25 12 69 10 35 -1
119 -3 187 -4 112 -3 123 -5 118 -21 -2 -9 0 -15 5 -11 5 3 9 17 9 32 l0 27
-138 1 c-75 0 -183 -1 -240 -3z m-49 -20 c-7 -2 -19 -2 -25 0 -7 3 -2 5 12 5
14 0 19 -2 13 -5z"/>
<path d="M111 1304 c0 -11 3 -14 6 -6 3 7 2 16 -1 19 -3 4 -6 -2 -5 -13z"/>
<path d="M499 1302 c0 -9 -3 -12 -5 -6 -5 11 -155 -25 -295 -71 l-81 -27 -46
33 c-39 27 -43 28 -24 8 12 -14 22 -28 22 -32 0 -3 12 -32 26 -64 21 -46 28
-54 33 -40 6 17 8 16 19 -7 7 -16 8 -26 2 -26 -6 0 -10 4 -10 10 0 5 -6 7 -14
4 -8 -3 -17 -1 -21 5 -7 12 -26 4 -60 -24 -19 -16 -18 -16 7 -1 64 38 83 -6
21 -49 -21 -14 -32 -25 -25 -25 8 0 13 -18 14 -52 1 -44 2 -47 5 -15 2 20 8
35 13 32 5 -3 7 -18 4 -33 -3 -15 -8 -91 -12 -168 l-7 -142 27 20 c23 16 26
23 18 38 -12 23 -13 80 -1 99 7 10 8 0 6 -30 -4 -39 -2 -37 9 16 l14 60 -2
-67 c0 -38 -4 -68 -8 -68 -5 0 -8 -4 -8 -9 0 -5 10 -7 22 -3 12 3 19 1 15 -5
-3 -5 11 -10 32 -11 21 -2 54 -7 72 -12 47 -14 49 -13 49 18 0 20 -3 23 -9 12
-6 -8 -7 -18 -5 -22 3 -4 0 -8 -6 -8 -7 0 -9 7 -6 15 3 9 -13 52 -35 97 -30
59 -36 79 -24 74 9 -3 21 -6 27 -6 6 0 8 -8 6 -18 -3 -10 6 -38 19 -63 13 -24
22 -36 19 -26 -3 10 -6 28 -6 38 0 11 -4 18 -8 15 -5 -3 -9 8 -9 24 0 54 28
31 34 -28 2 -18 13 -56 23 -83 11 -28 18 -54 15 -59 -3 -4 11 -11 30 -14 19
-4 35 -10 35 -14 0 -4 -43 -50 -94 -101 -52 -52 -92 -99 -89 -104 3 -5 -4 -15
-16 -23 -22 -16 -19 -39 4 -30 8 3 15 0 18 -7 2 -6 6 -3 10 7 4 10 3 15 -3 11
-15 -9 -12 11 3 24 8 6 18 7 22 3 5 -4 5 -1 1 6 -10 16 22 54 37 45 5 -3 7 -1
4 4 -4 6 1 17 10 24 15 12 16 12 9 -6 -6 -16 -1 -13 23 9 19 19 29 36 26 47
-3 9 1 22 10 29 8 7 12 16 9 21 -3 5 2 6 10 3 20 -8 20 -13 1 -34 -13 -14 -12
-16 5 -16 11 0 20 6 20 12 0 11 19 10 59 -2 11 -4 11 -8 -3 -22 -13 -16 -16
-46 -16 -196 l0 -178 -35 6 c-29 6 -35 4 -35 -11 0 -22 59 -30 72 -10 4 6 8
87 8 178 l0 166 36 1 c52 2 56 12 6 12 -23 0 -42 4 -42 9 0 6 16 7 35 4 27 -4
39 -1 48 12 11 14 13 -27 11 -217 -2 -128 0 -225 2 -216 3 10 10 18 15 18 6 0
8 -4 5 -9 -6 -9 34 -24 72 -26 16 -1 22 5 22 21 0 13 5 26 11 30 8 5 10 -3 7
-25 -5 -31 13 -44 28 -19 4 7 3 8 -4 4 -8 -5 -12 1 -12 17 0 20 4 23 25 19 14
-2 25 -9 25 -15 0 -6 3 -8 6 -4 4 3 19 0 35 -9 16 -8 29 -11 29 -6 0 4 -17 14
-37 22 -21 7 -32 15 -25 17 6 3 33 -7 58 -21 55 -31 63 -32 41 -8 -10 10 -15
21 -13 23 2 2 -8 5 -22 5 -15 1 -48 8 -74 15 l-48 12 -2 86 -2 86 -3 -82 c-2
-46 -8 -83 -14 -83 -6 0 -8 57 -7 152 l3 153 80 33 c44 17 88 30 98 28 9 -2
15 -1 12 4 -5 9 28 20 62 20 12 0 28 6 35 14 8 7 24 17 37 21 12 4 20 9 17 12
-4 5 -291 -90 -328 -109 -17 -8 -18 -1 -18 85 0 52 3 135 6 185 l7 90 36 -5
c20 -3 49 -14 65 -25 20 -15 38 -19 62 -15 29 5 34 3 34 -14 0 -11 5 -17 10
-14 14 9 12 52 -2 58 -8 3 -7 6 4 6 12 1 18 -9 21 -31 4 -32 4 -32 5 5 2 35 0
37 -27 35 -19 -1 -27 -7 -24 -15 7 -18 -57 -17 -81 2 -19 14 -17 15 20 17 33
1 31 2 -16 7 -30 3 -57 3 -60 -1 -3 -3 -16 0 -30 7 l-24 13 39 11 c21 5 52 24
69 40 20 19 53 36 90 45 32 9 62 19 65 22 3 4 -3 4 -14 0 -11 -4 -48 -10 -83
-13 -39 -4 -58 -9 -50 -14 10 -7 9 -12 -4 -26 -17 -16 -18 -16 -18 5 0 27 2
27 -89 2 -89 -25 -114 -38 -172 -86 -41 -34 -47 -36 -95 -31 -29 3 -76 12
-106 20 -97 27 -143 38 -166 40 -22 1 -23 5 -20 57 2 40 -2 64 -15 83 -21 32
-22 47 -3 47 20 0 48 -30 42 -45 -3 -8 2 -16 11 -19 9 -4 13 -14 10 -26 -5
-18 -3 -18 27 4 39 30 90 56 141 73 l40 13 -35 -1 c-63 -2 -80 1 -80 12 0 5 5
7 10 4 6 -4 10 7 9 27 -1 31 -1 32 -9 8 -5 -17 -8 4 -9 64 -1 49 2 87 5 84 10
-11 31 -115 28 -142 -2 -17 2 -26 11 -26 8 0 15 13 17 33 2 26 8 33 28 35 42
6 47 22 7 22 -21 0 -37 5 -37 11 0 7 9 9 23 5 12 -3 30 -6 40 -6 16 0 18 -7
15 -54 -2 -39 0 -52 9 -49 8 3 10 16 6 35 -5 28 -4 30 17 23 15 -5 20 -4 16 4
-4 6 -13 11 -21 11 -14 0 -30 53 -21 68 8 13 122 13 153 1 15 -5 32 -17 39
-27 17 -21 18 -11 2 23 -8 18 -18 25 -30 22 -13 -4 -18 0 -18 14 0 13 7 19 23
19 16 0 18 3 9 9 -10 6 -9 10 7 14 12 3 18 1 15 -4 -3 -5 2 -17 12 -26 15 -16
15 -17 -2 -24 -17 -7 -16 -8 5 -8 17 -1 22 3 17 14 -8 21 -1 19 28 -9 29 -26
35 -49 11 -40 -10 4 -15 0 -15 -15 0 -12 -3 -21 -7 -20 -5 1 -18 -2 -30 -6
-18 -6 -23 -15 -23 -39 0 -61 9 -76 45 -76 18 0 36 6 38 13 4 10 6 10 6 0 1
-20 41 -16 41 5 0 16 -20 117 -35 174 -5 20 -3 27 12 31 10 3 1 5 -19 6 -31 1
-38 5 -38 21 0 16 7 20 30 20 18 0 30 -5 30 -13 0 -9 10 -12 30 -9 17 2 30 8
30 12 0 5 12 11 28 13 15 3 -40 4 -123 3 -82 -2 -160 1 -172 5 -18 7 -23 5
-24 -9z m26 -12 c-3 -5 -1 -10 4 -10 6 0 11 -12 10 -27 l-1 -28 -8 25 c-7 21
-8 22 -9 5 -1 -19 -8 -21 -78 -22 -43 0 -70 2 -60 4 25 7 11 22 -16 16 -20 -4
-21 -3 -3 7 11 7 42 11 76 8 48 -3 60 -1 69 14 6 10 14 18 17 18 3 0 2 -4 -1
-10z m135 -20 c0 -5 -5 -10 -11 -10 -5 0 -7 5 -4 10 3 6 8 10 11 10 2 0 4 -4
4 -10z m-475 -85 c-1 -14 2 -25 7 -25 5 0 7 -4 3 -9 -3 -5 -1 -12 5 -16 6 -4
8 -11 5 -16 -4 -5 -3 -9 2 -9 4 0 9 -16 10 -35 2 -19 0 -35 -5 -35 -4 0 -21
35 -38 78 -28 68 -30 78 -15 84 26 11 29 9 26 -17z m85 -77 c0 -45 -3 -79 -6
-75 -10 10 -22 77 -13 71 5 -3 9 15 9 40 0 25 2 46 5 46 3 0 5 -37 5 -82z
m452 0 c-7 -7 -12 -8 -12 -2 0 14 12 26 19 19 2 -3 -1 -11 -7 -17z m-42 -9 c0
-6 -4 -8 -9 -5 -5 4 -11 1 -13 -6 -3 -8 -6 -7 -10 3 -4 10 1 15 13 16 10 1 19
-3 19 -8z m-505 -55 c36 -23 31 -39 -5 -17 -16 9 -30 21 -30 25 0 12 8 10 35
-8z m125 -29 c-29 -17 -50 -19 -50 -6 0 10 23 18 55 19 17 1 17 -1 -5 -13z
m-60 -20 c0 -8 -4 -15 -10 -15 -5 0 -10 7 -10 15 0 8 5 15 10 15 6 0 10 -7 10
-15z m540 -99 c0 -24 -21 -36 -65 -36 -17 0 -17 2 -5 10 8 5 26 10 39 10 18 0
22 4 18 20 -3 11 -1 20 4 20 5 0 9 -11 9 -24z m-660 -66 l-7 -45 -1 60 c-1 37
2 54 7 45 5 -8 5 -35 1 -60z m-23 -37 c-3 -10 -5 -2 -5 17 0 19 2 27 5 18 2
-10 2 -26 0 -35z m66 10 c-8 -52 -13 -54 -13 -5 0 23 4 42 9 42 6 0 7 -17 4
-37z m55 -86 c5 -32 6 -55 2 -50 -4 4 -10 35 -14 68 -7 72 0 62 12 -18z m461
-112 c0 -70 -4 -103 -9 -90 -5 11 -8 79 -8 150 0 95 3 119 9 90 4 -22 8 -89 8
-150z m-499 114 c0 -33 -3 -58 -8 -55 -6 4 -7 36 -3 104 1 6 3 12 6 12 3 0 5
-27 5 -61z m317 -81 c-2 -24 -4 -5 -4 42 0 47 2 66 4 43 2 -24 2 -62 0 -85z
m42 -142 c-9 -8 -10 -5 -5 14 3 14 7 66 8 115 l2 90 3 -104 c3 -71 0 -108 -8
-115z m-443 147 c-11 -11 -19 6 -11 24 8 17 8 17 12 0 3 -10 2 -21 -1 -24z
m169 17 c3 -5 1 -10 -4 -10 -6 0 -11 5 -11 10 0 6 2 10 4 10 3 0 8 -4 11 -10z
m125 -113 c0 -2 -10 -12 -22 -23 l-23 -19 19 23 c18 21 26 27 26 19z m-34 -56
c10 8 14 8 14 1 0 -6 -9 -16 -20 -22 -11 -6 -20 -8 -20 -4 0 4 -20 -12 -45
-35 -64 -59 -66 -51 -3 12 29 29 55 49 56 45 2 -5 10 -4 18 3z m322 -193 l-2
-173 -6 140 c-5 132 -3 205 6 205 2 0 3 -78 2 -172z m-25 -185 c-13 -2 -35 -2
-50 0 -16 2 -5 4 22 4 28 0 40 -2 28 -4z m24 -55 c-3 -7 -5 -2 -5 12 0 14 2
19 5 13 2 -7 2 -19 0 -25z"/>
<path d="M368 1303 c7 -3 16 -2 19 1 4 3 -2 6 -13 5 -11 0 -14 -3 -6 -6z"/>
<path d="M190 1286 c0 -2 7 -7 16 -10 8 -3 12 -2 9 4 -6 10 -25 14 -25 6z"/>
<path d="M57 1269 c7 -7 15 -10 18 -7 3 3 -2 9 -12 12 -14 6 -15 5 -6 -5z"/>
<path d="M101 1262 c-9 -9 -9 -14 3 -18 9 -3 12 -12 8 -22 -5 -14 -4 -15 10
-2 9 8 12 17 7 18 -5 2 -9 8 -9 13 0 6 9 5 21 -1 11 -7 23 -9 27 -6 3 3 0 6
-7 6 -7 0 -10 4 -6 10 3 5 13 6 23 3 10 -4 14 -2 9 3 -12 13 -73 11 -86 -4z"/>
<path d="M1890 1260 c-14 -11 -47 -22 -75 -25 -185 -21 -215 -27 -215 -44 0
-13 2 -13 9 -2 13 20 41 6 42 -21 1 -18 3 -17 8 7 7 36 23 40 195 51 66 4 112
10 101 12 -11 2 -23 9 -27 16 -6 8 -8 7 -8 -1 0 -7 -7 -13 -17 -13 -14 0 -14
2 2 20 23 25 17 25 -15 0z"/>
<path d="M2190 1270 c0 -5 5 -10 11 -10 5 0 7 5 4 10 -3 6 -8 10 -11 10 -2 0
-4 -4 -4 -10z"/>
<path d="M778 1263 c6 -3 13 -17 13 -31 2 -24 2 -24 6 -4 4 20 10 22 86 24 45
0 88 1 95 1 6 -1 12 3 12 8 0 6 -49 9 -112 8 -62 -1 -107 -4 -100 -6z"/>
<path d="M1502 1218 c-2 -62 -22 -82 -22 -23 0 19 -4 35 -9 35 -5 0 -7 -17 -4
-38 l5 -37 -49 -1 c-26 -1 -109 -6 -183 -11 l-135 -10 104 -1 c58 -1 131 3
163 10 86 18 109 -5 84 -82 -7 -20 -6 -22 4 -13 7 6 15 31 17 56 l5 44 47 -2
c25 -1 32 0 14 2 -32 4 -32 5 -36 66 l-3 62 -2 -57z"/>
<path d="M1658 1243 c7 -3 16 -2 19 1 4 3 -2 6 -13 5 -11 0 -14 -3 -6 -6z"/>
<path d="M2043 1243 c9 -2 25 -2 35 0 9 3 1 5 -18 5 -19 0 -27 -2 -17 -5z"/>
<path d="M741 1224 c0 -11 3 -14 6 -6 3 7 2 16 -1 19 -3 4 -6 -2 -5 -13z"/>
<path d="M1303 1233 c15 -2 39 -2 55 0 15 2 2 4 -28 4 -30 0 -43 -2 -27 -4z"/>
<path d="M1586 1232 c-3 -5 1 -9 9 -9 8 0 15 4 15 9 0 4 -4 8 -9 8 -6 0 -12
-4 -15 -8z"/>
<path d="M1956 1212 c19 -13 24 -54 8 -69 -21 -22 -13 -25 32 -13 34 8 35 9 7
7 -18 -2 -29 1 -26 6 3 5 26 7 52 5 25 -3 38 -3 28 -1 -26 6 -10 23 23 23 16
0 31 4 35 9 3 6 -20 8 -60 4 -61 -5 -65 -4 -65 16 0 15 -6 21 -22 21 -13 0
-18 -3 -12 -8z"/>
<path d="M473 1203 c-31 -6 -29 -23 1 -21 14 1 23 5 20 9 -2 4 8 10 23 12 25
4 26 4 3 4 -14 0 -35 -2 -47 -4z"/>
<path d="M952 1190 c0 -14 2 -19 5 -12 2 6 2 18 0 25 -3 6 -5 1 -5 -13z"/>
<path d="M1562 1185 c0 -16 2 -22 5 -12 2 9 2 23 0 30 -3 6 -5 -1 -5 -18z"/>
<path d="M1793 1203 c15 -2 39 -2 55 0 15 2 2 4 -28 4 -30 0 -43 -2 -27 -4z"/>
<path d="M802 1175 c0 -16 2 -22 5 -12 2 9 2 23 0 30 -3 6 -5 -1 -5 -18z"/>
<path d="M753 1145 c0 -22 2 -30 4 -17 2 12 2 30 0 40 -3 9 -5 -1 -4 -23z"/>
<path d="M1770 1160 c0 -5 8 -11 18 -13 11 -3 8 -5 -8 -5 -14 -1 -53 -3 -88
-5 -48 -4 -65 -2 -69 9 -7 20 -20 17 -26 -6 -5 -21 5 -25 52 -21 22 2 22 1 7
-14 -12 -13 -20 -14 -30 -6 -16 14 -68 -8 -61 -26 2 -7 0 -13 -5 -13 -6 0 -10
-7 -10 -15 0 -11 -12 -15 -45 -15 -42 0 -45 -2 -45 -26 0 -14 6 -52 14 -83 28
-113 28 -120 1 -133 -13 -6 -27 -18 -30 -26 -5 -13 -3 -13 13 1 23 21 39 22
39 2 0 -9 -5 -14 -11 -12 -7 3 -17 -6 -23 -20 -11 -23 -11 -24 30 -20 22 2 43
9 45 15 2 8 9 9 21 2 13 -7 18 -5 18 6 0 8 -6 13 -13 10 -16 -6 -28 10 -14 19
16 10 52 -5 46 -20 -6 -17 41 -13 57 5 9 10 9 11 -3 5 -12 -6 -12 -5 -4 4 13
14 54 -1 54 -20 0 -6 -4 -8 -9 -5 -5 3 -8 0 -7 -7 0 -6 -3 -12 -9 -12 -5 0 -9
3 -8 7 2 4 -4 5 -13 1 -13 -5 -13 -7 -2 -14 10 -7 10 -9 -2 -9 -13 -1 -12 -2
1 -10 19 -11 58 -5 73 11 8 9 6 10 -7 6 -14 -5 -18 -3 -15 10 2 9 9 18 15 21
18 5 28 -27 15 -48 -9 -15 -8 -17 9 -13 14 4 19 0 19 -14 0 -19 32 -53 50 -53
6 0 10 18 10 40 0 38 1 39 26 30 16 -7 23 -7 19 0 -4 6 13 10 42 10 26 0 65 4
86 9 29 7 58 4 120 -12 l82 -22 3 -56 3 -56 -48 -6 c-26 -3 -62 -9 -80 -13
-29 -6 -32 -4 -36 22 l-4 29 -2 -29 c-1 -25 -4 -27 -26 -22 -20 5 -23 3 -18
-10 5 -13 16 -15 62 -10 31 3 67 8 81 12 24 6 24 6 5 -8 -20 -15 -31 -17 -95
-19 -28 -1 -31 -3 -15 -9 16 -7 17 -9 3 -9 -9 -1 -19 -5 -22 -10 -3 -5 26 -1
64 9 49 13 70 15 70 7 0 -7 13 -21 28 -31 27 -20 27 -20 10 0 -24 28 -23 34 8
34 17 0 23 4 18 12 -5 7 -2 9 8 5 11 -4 15 -1 12 11 -2 9 5 28 17 42 16 19 19
20 15 6 -6 -18 -1 -19 124 -12 71 4 130 4 130 -1 0 -4 -46 -9 -103 -11 -56 -2
-103 -7 -105 -13 -2 -5 -8 -9 -13 -9 -6 0 -8 4 -5 9 6 9 -40 22 -48 13 -9 -8
15 -43 25 -37 5 4 8 1 7 -7 -2 -9 5 -12 22 -10 14 2 69 4 123 6 53 1 100 6
104 10 4 4 -1 44 -10 89 -20 96 -20 97 -7 97 5 0 13 -15 18 -32 l9 -33 4 32
c3 19 1 31 -5 30 -6 -1 -12 9 -13 23 -2 22 -2 23 6 5 9 -19 10 -19 10 4 1 20
3 21 16 11 8 -7 15 -26 15 -42 0 -17 4 -27 10 -23 6 3 10 -3 10 -14 0 -11 9
-22 20 -26 11 -4 18 -11 15 -16 -3 -5 1 -6 9 -3 13 5 16 25 16 101 l0 95 -409
-3 -410 -4 -7 -77 c-4 -43 -10 -78 -14 -78 -21 0 -31 36 -33 114 -1 47 -3 81
-5 76 -2 -6 -10 -6 -20 -1 -15 8 -17 4 -13 -36 2 -35 0 -44 -10 -41 -9 3 -14
22 -15 57 -1 65 -14 81 -14 17 0 -73 -16 -45 -18 31 -1 62 0 66 13 49 8 -11
15 -16 15 -12 0 5 6 5 13 0 7 -5 -2 4 -20 19 -34 30 -44 53 -19 44 11 -4 13
-1 9 10 -5 13 -3 13 15 4 18 -9 19 -8 14 12 -6 27 -20 37 -50 37 -32 0 -17
-20 16 -21 21 -1 18 -3 -13 -10 -58 -12 -104 -11 -85 1 13 8 12 10 -2 10 -10
0 -18 4 -18 10 0 6 9 6 26 0 36 -14 47 -12 40 6 -5 13 2 15 39 13 24 -2 47 0
51 4 6 6 -35 12 -58 8 -4 0 -5 6 -1 15 4 10 13 14 27 10 70 -16 99 -18 91 -6
-5 8 -3 11 6 8 8 -3 13 -10 12 -16 -4 -18 116 -9 127 8 7 10 10 11 10 3 0 -7
7 -13 15 -13 8 0 15 -4 15 -10 0 -5 -19 -11 -42 -11 -27 -1 -33 -3 -17 -6 22
-3 25 -9 23 -31 -4 -27 -4 -27 4 -2 6 18 15 25 33 24 13 -1 27 3 31 9 4 7 17
6 38 -3 22 -9 28 -15 18 -21 -9 -6 -6 -8 8 -7 16 2 19 7 16 25 -4 19 -1 22 13
17 11 -5 15 -14 12 -31 -3 -16 2 -27 14 -33 35 -19 106 -7 98 16 -7 21 -35 44
-51 44 -26 0 -22 -18 4 -22 13 -2 24 -11 26 -20 3 -14 -3 -18 -26 -18 -50 0
-62 8 -52 36 5 13 8 24 7 24 -1 0 -20 7 -42 16 l-40 15 40 -6 c115 -19 147
-10 56 15 -28 7 -51 17 -51 20 0 4 -7 7 -15 7 -18 0 -20 -13 -2 -20 6 -3 2 -6
-10 -6 -24 -1 -31 -15 -13 -26 21 -13 9 -24 -15 -13 -19 8 -28 8 -40 -2 -13
-10 -15 -9 -15 8 0 11 -6 22 -12 25 -7 2 9 8 35 12 36 5 47 11 45 23 -2 8 -13
16 -25 17 -12 1 -20 -2 -18 -6 7 -11 -109 -22 -155 -14 -22 4 -46 3 -53 -3
-20 -15 -43 -21 -56 -12 -9 5 -3 8 14 8 14 0 32 5 38 11 8 8 -3 11 -43 12 -74
1 -29 17 53 18 32 1 56 5 53 9 -2 4 11 8 30 8 19 0 34 -4 34 -8 0 -4 7 -8 15
-8 18 0 20 16 4 26 -17 10 -159 14 -159 4z m-145 -93 c6 -5 3 -7 -7 -3 -10 3
-18 1 -18 -4 0 -5 10 -10 23 -12 19 -3 18 -5 -11 -15 -32 -12 -33 -12 -30 15
3 28 18 46 28 34 3 -4 10 -11 15 -15z m348 16 c-7 -2 -19 -2 -25 0 -7 3 -2 5
12 5 14 0 19 -2 13 -5z m-445 -328 c3 -22 0 -26 -12 -22 -8 3 -18 2 -21 -3 -4
-6 -12 -10 -18 -10 -7 0 -2 8 9 18 12 9 20 25 19 35 -2 10 2 16 8 14 7 -2 13
-16 15 -32z m509 -7 c-3 -7 -5 -2 -5 12 0 14 2 19 5 13 2 -7 2 -19 0 -25z
m300 -25 c-3 -10 -5 -2 -5 17 0 19 2 27 5 18 2 -10 2 -26 0 -35z m-40 -40 c-2
-16 -4 -3 -4 27 0 30 2 43 4 28 2 -16 2 -40 0 -55z m-220 35 c-3 -7 -5 -2 -5
12 0 14 2 19 5 13 2 -7 2 -19 0 -25z m-160 -10 c-3 -8 -6 -5 -6 6 -1 11 2 17
5 13 3 -3 4 -12 1 -19z m702 -30 c-2 -52 -2 -53 -8 -13 -4 22 -5 46 -3 53 8
25 12 11 11 -40z m-192 10 c-3 -7 -5 -2 -5 12 0 14 2 19 5 13 2 -7 2 -19 0
-25z m40 -10 c-3 -8 -6 -5 -6 6 -1 11 2 17 5 13 3 -3 4 -12 1 -19z m-160 -105
c-3 -10 -5 -4 -5 12 0 17 2 24 5 18 2 -7 2 -21 0 -30z m93 13 c0 -3 -4 -8 -10
-11 -5 -3 -10 -1 -10 4 0 6 5 11 10 11 6 0 10 -2 10 -4z"/>
<path d="M292 1140 c0 -14 2 -19 5 -12 2 6 2 18 0 25 -3 6 -5 1 -5 -13z"/>
<path d="M602 1115 c0 -16 2 -22 5 -12 2 9 2 23 0 30 -3 6 -5 -1 -5 -18z"/>
<path d="M811 1115 c0 -16 3 -24 6 -17 9 23 23 12 24 -20 0 -18 3 -27 6 -20 6
14 69 16 78 2 3 -5 14 -10 23 -10 15 0 15 2 2 11 -11 7 -5 9 23 6 20 -3 37 -1
37 3 0 5 -12 10 -27 12 -17 2 -29 10 -31 21 -3 14 4 17 42 17 l45 0 -10 -28
c-7 -20 -6 -37 2 -58 16 -38 29 -426 14 -436 -7 -5 -7 -8 0 -8 7 0 11 -68 12
-185 2 -175 1 -185 -18 -195 -11 -6 -17 -15 -14 -20 3 -5 -7 -16 -22 -25 -15
-9 -21 -14 -11 -11 9 3 18 -2 21 -12 3 -9 8 -25 12 -34 6 -15 2 -18 -29 -18
-20 0 -36 -5 -36 -11 0 -14 84 -3 111 14 23 14 25 57 3 57 -8 0 -12 -4 -9 -10
3 -5 1 -10 -5 -10 -6 0 -8 -4 -5 -10 3 -5 2 -10 -3 -10 -5 0 -9 16 -10 35 -1
19 3 35 8 35 6 0 10 -4 10 -9 0 -5 8 -8 18 -6 9 2 19 4 22 4 2 1 -5 8 -17 16
-12 8 -30 12 -40 9 -15 -5 -15 -3 2 7 30 18 33 27 28 77 -4 39 -2 44 12 38 9
-3 21 -6 26 -6 14 0 11 -50 -3 -51 -7 0 -3 -4 10 -9 28 -12 32 -60 5 -61 -13
0 -14 -2 -4 -6 7 -3 25 -18 40 -33 14 -15 32 -25 39 -23 16 6 15 -7 -3 -50
-19 -46 -19 -53 1 -36 9 7 22 29 30 48 12 29 20 36 44 37 23 1 31 -4 38 -25 9
-25 8 -27 -19 -25 -22 2 -26 -1 -21 -15 5 -13 3 -14 -10 -3 -12 10 -17 10 -26
-1 -9 -10 -6 -13 11 -14 12 -1 39 -5 61 -9 35 -6 38 -5 33 12 -3 10 -11 38
-17 62 -10 37 -13 41 -30 32 -17 -9 -20 -7 -26 15 -3 14 -3 40 1 58 3 17 7 44
7 59 1 15 5 25 9 22 5 -3 9 -1 9 4 0 5 -11 14 -24 22 -26 13 -41 47 -23 53 6
2 7 9 2 17 -12 20 -16 88 -5 95 6 3 10 11 10 18 0 6 -7 2 -15 -9 -23 -30 -20
-148 4 -171 16 -16 18 -29 14 -95 -5 -75 -6 -77 -34 -83 -47 -10 -69 9 -69 60
0 24 -4 46 -9 50 -6 3 -9 46 -7 95 1 49 -2 91 -6 92 -4 2 -9 26 -10 53 -2 28
-7 53 -13 57 -6 5 -5 12 3 20 14 14 16 32 2 23 -5 -3 -10 2 -10 12 -1 10 -3
34 -5 53 -2 19 -7 74 -10 123 -4 48 -11 85 -16 82 -5 -4 -6 7 -3 22 3 16 -1
56 -10 90 -21 79 -20 119 2 141 17 17 15 17 -50 17 -64 0 -68 -1 -68 -22 0
-17 -6 -23 -22 -24 -13 0 -33 -2 -45 -5 -20 -3 -23 0 -23 29 0 24 -3 28 -10
17 -9 -13 -11 -13 -20 0 -7 12 -10 8 -9 -15z"/>
<path d="M1886 1125 c-3 -9 0 -15 9 -15 9 0 12 6 9 15 -4 8 -7 15 -9 15 -2 0
-5 -7 -9 -15z"/>
<path d="M512 1110 c0 -14 2 -19 5 -12 2 6 2 18 0 25 -3 6 -5 1 -5 -13z"/>
<path d="M2236 1121 c-6 -9 62 -6 72 3 3 3 -11 6 -31 6 -20 0 -38 -4 -41 -9z"/>
<path d="M1089 1082 c5 -34 6 -35 9 -8 2 16 0 32 -5 37 -5 5 -7 -7 -4 -29z"/>
<path d="M2368 1103 c6 -2 18 -2 25 0 6 3 1 5 -13 5 -14 0 -19 -2 -12 -5z"/>
<path d="M2190 1090 c0 -5 19 -13 43 -18 l42 -10 -32 -7 c-45 -10 -58 -55 -15
-55 12 0 13 3 4 12 -7 7 -12 17 -12 23 0 5 4 4 9 -4 5 -7 26 -14 48 -15 22 0
49 -8 59 -16 18 -14 18 -14 5 2 -7 10 -11 25 -7 33 3 10 0 15 -11 15 -9 0 -13
3 -9 8 9 8 14 9 57 11 16 0 28 5 24 10 -3 6 -15 8 -28 5 -36 -8 -123 -5 -151
6 -15 5 -26 6 -26 0z"/>
<path d="M2328 1093 c7 -3 16 -2 19 1 4 3 -2 6 -13 5 -11 0 -14 -3 -6 -6z"/>
<path d="M457 1075 c-4 -8 3 -10 19 -7 29 5 30 8 5 15 -11 3 -22 -1 -24 -8z"/>
<path d="M762 1053 l-2 -43 59 0 c33 0 63 5 67 11 5 8 -11 9 -54 4 l-61 -7 -4
39 -4 38 -1 -42z"/>
<path d="M2158 1083 c7 -3 16 -2 19 1 4 3 -2 6 -13 5 -11 0 -14 -3 -6 -6z"/>
<path d="M585 1073 c-40 -10 -39 -23 1 -22 21 0 33 3 26 6 -6 2 -10 9 -6 14 3
5 4 8 2 8 -2 -1 -12 -3 -23 -6z"/>
<path d="M368 1063 c6 -2 18 -2 25 0 6 3 1 5 -13 5 -14 0 -19 -2 -12 -5z"/>
<path d="M877 1049 c8 -8 16 -8 30 0 16 9 14 10 -11 11 -22 0 -27 -3 -19 -11z"/>
<path d="M2340 1056 c0 -2 9 -6 20 -9 11 -3 20 -1 20 4 0 5 -9 9 -20 9 -11 0
-20 -2 -20 -4z"/>
<path d="M2402 1048 c3 -7 22 -14 44 -15 32 -1 34 0 14 6 l-25 8 25 5 c17 4
12 6 -18 7 -31 1 -42 -3 -40 -11z"/>
<path d="M433 1043 c15 -2 39 -2 55 0 15 2 2 4 -28 4 -30 0 -43 -2 -27 -4z"/>
<path d="M538 1033 c7 -3 16 -2 19 1 4 3 -2 6 -13 5 -11 0 -14 -3 -6 -6z"/>
<path d="M928 1033 c6 -2 18 -2 25 0 6 3 1 5 -13 5 -14 0 -19 -2 -12 -5z"/>
<path d="M2340 1030 c0 -5 7 -10 16 -10 8 0 12 5 9 10 -3 6 -10 10 -16 10 -5
0 -9 -4 -9 -10z"/>
<path d="M950 1015 c-25 -14 -25 -14 10 -10 l35 5 -30 -15 -30 -16 30 6 c39 8
42 12 24 30 -12 12 -17 12 -39 0z"/>
<path d="M2385 1020 c3 -5 8 -10 11 -10 2 0 4 5 4 10 0 6 -5 10 -11 10 -5 0
-7 -4 -4 -10z"/>
<path d="M2575 1019 l-50 -6 48 -1 c91 -3 37 -21 -64 -21 -55 0 -105 -3 -110
-7 -6 -3 -17 2 -25 12 -14 17 -15 17 -10 2 4 -15 -1 -18 -27 -19 l-32 -1 30
-8 c46 -12 105 -11 105 1 0 6 31 10 83 10 115 -1 116 -1 111 22 -4 25 0 23
-59 16z"/>
<path d="M618 1013 c7 -3 16 -2 19 1 4 3 -2 6 -13 5 -11 0 -14 -3 -6 -6z"/>
<path d="M2448 1013 c6 -2 18 -2 25 0 6 3 1 5 -13 5 -14 0 -19 -2 -12 -5z"/>
<path d="M894 1002 c2 -4 -31 -13 -75 -20 -83 -13 -135 -29 -127 -38 3 -2 18
0 34 6 15 6 58 14 94 16 35 3 69 8 74 11 4 3 13 -1 18 -8 8 -11 8 -10 4 4 -3
10 -6 23 -6 28 0 5 -5 9 -11 9 -5 0 -8 -4 -5 -8z"/>
<path d="M2266 993 c-4 -10 -13 -12 -27 -8 -15 5 -19 4 -15 -4 4 -6 22 -11 39
-11 23 0 28 3 18 9 -11 7 -7 10 15 13 l29 3 -27 6 c-18 4 -29 1 -32 -8z"/>
<path d="M1818 969 c5 -31 4 -31 -35 -28 -34 4 -39 2 -38 -16 1 -14 9 -21 26
-22 14 -1 17 0 7 3 -10 3 -18 10 -18 15 0 5 86 10 203 11 l202 2 -155 6 c-85
3 -135 7 -110 9 35 2 40 4 25 11 -24 9 -77 1 -87 -14 -4 -6 -8 4 -8 22 0 17
-4 32 -8 32 -5 0 -6 -14 -4 -31z"/>
<path d="M1973 963 c9 -2 25 -2 35 0 9 3 1 5 -18 5 -19 0 -27 -2 -17 -5z"/>
<path d="M2458 963 c6 -2 18 -2 25 0 6 3 1 5 -13 5 -14 0 -19 -2 -12 -5z"/>
<path d="M2048 953 c12 -2 32 -2 45 0 12 2 2 4 -23 4 -25 0 -35 -2 -22 -4z"/>
<path d="M2538 953 c6 -2 18 -2 25 0 6 3 1 5 -13 5 -14 0 -19 -2 -12 -5z"/>
<path d="M2598 953 c7 -3 16 -2 19 1 4 3 -2 6 -13 5 -11 0 -14 -3 -6 -6z"/>
<path d="M665 940 c3 -5 8 -10 11 -10 2 0 4 5 4 10 0 6 -5 10 -11 10 -5 0 -7
-4 -4 -10z"/>
<path d="M2408 943 c17 -2 47 -2 65 0 17 2 3 4 -33 4 -36 0 -50 -2 -32 -4z"/>
<path d="M150 906 c0 -42 17 -57 26 -22 4 17 1 31 -10 41 -15 15 -16 14 -16
-19z"/>
<path d="M2358 913 c6 -2 18 -2 25 0 6 3 1 5 -13 5 -14 0 -19 -2 -12 -5z"/>
<path d="M2408 913 c6 -2 18 -2 25 0 6 3 1 5 -13 5 -14 0 -19 -2 -12 -5z"/>
<path d="M2488 913 c7 -3 16 -2 19 1 4 3 -2 6 -13 5 -11 0 -14 -3 -6 -6z"/>
<path d="M523 869 c-37 -40 -39 -41 -93 -35 -58 5 -58 3 3 -13 37 -9 41 -8 80
28 23 21 51 43 62 49 16 9 17 11 3 12 -9 0 -34 -18 -55 -41z"/>
<path d="M873 895 c-3 -9 -3 -18 -1 -21 3 -3 8 4 11 16 6 23 -1 27 -10 5z"/>
<path d="M896 894 c-8 -21 -8 -34 2 -34 4 0 8 11 8 25 2 29 -1 32 -10 9z"/>
<path d="M2068 903 c23 -2 61 -2 85 0 23 2 4 4 -43 4 -47 0 -66 -2 -42 -4z"/>
<path d="M1868 893 c17 -2 47 -2 65 0 17 2 3 4 -33 4 -36 0 -50 -2 -32 -4z"/>
<path d="M2433 883 c26 -2 68 -2 95 0 26 2 4 3 -48 3 -52 0 -74 -1 -47 -3z"/>
<path d="M1740 876 c0 -2 7 -7 16 -10 8 -3 12 -2 9 4 -6 10 -25 14 -25 6z"/>
<path d="M1819 843 c5 -37 6 -37 9 -8 2 16 9 33 15 37 8 5 4 8 -8 8 -18 0 -20
-5 -16 -37z"/>
<path d="M2088 873 c6 -2 18 -2 25 0 6 3 1 5 -13 5 -14 0 -19 -2 -12 -5z"/>
<path d="M2148 873 c7 -3 16 -2 19 1 4 3 -2 6 -13 5 -11 0 -14 -3 -6 -6z"/>
<path d="M1898 863 c12 -2 30 -2 40 0 9 3 -1 5 -23 4 -22 0 -30 -2 -17 -4z"/>
<path d="M223 853 c9 -2 23 -2 30 0 6 3 -1 5 -18 5 -16 0 -22 -2 -12 -5z"/>
<path d="M836 723 c-6 -14 -5 -15 5 -6 7 7 10 15 7 18 -3 3 -9 -2 -12 -12z"/>
<path d="M1430 730 c0 -5 -16 -17 -35 -26 -19 -9 -35 -20 -35 -25 0 -5 -15
-18 -32 -29 -26 -16 -29 -20 -13 -20 15 0 17 -3 7 -9 -11 -7 -11 -9 1 -14 10
-4 14 0 12 11 -3 20 24 54 37 46 4 -3 7 0 6 8 -2 7 12 19 30 27 17 8 32 21 32
28 0 7 -2 13 -5 13 -3 0 -5 -4 -5 -10z"/>
<path d="M875 721 c16 -7 13 -9 -19 -15 -21 -4 -36 -9 -33 -12 6 -6 87 12 98
23 4 4 -9 9 -29 10 -26 1 -31 -1 -17 -6z"/>
<path d="M1538 693 c6 -2 18 -2 25 0 6 3 1 5 -13 5 -14 0 -19 -2 -12 -5z"/>
<path d="M1468 683 c7 -3 16 -2 19 1 4 3 -2 6 -13 5 -11 0 -14 -3 -6 -6z"/>
<path d="M1691 661 c-8 -5 -19 -8 -25 -7 -6 2 -7 1 -3 -2 5 -2 -4 -18 -20 -35
-23 -25 -19 -23 20 8 42 35 52 45 45 45 -2 0 -9 -4 -17 -9z"/>
<path d="M2138 653 c6 -2 18 -2 25 0 6 3 1 5 -13 5 -14 0 -19 -2 -12 -5z"/>
<path d="M2068 643 c12 -2 30 -2 40 0 9 3 -1 5 -23 4 -22 0 -30 -2 -17 -4z"/>
<path d="M1368 633 c7 -3 16 -2 19 1 4 3 -2 6 -13 5 -11 0 -14 -3 -6 -6z"/>
<path d="M1859 620 c30 -7 50 -24 51 -42 0 -3 -13 -5 -28 -4 -22 1 -28 -2 -28
-17 1 -11 -7 -24 -16 -30 -14 -9 -22 -7 -41 11 -38 36 -57 27 -64 -31 -4 -35
18 -57 29 -29 4 11 7 6 7 -16 1 -30 -1 -32 -19 -22 -11 6 -20 16 -20 22 0 6
-10 1 -22 -11 -31 -30 -154 -119 -203 -148 -22 -12 -37 -23 -34 -23 24 0 189
69 189 80 0 3 13 7 29 8 16 1 44 8 62 16 36 15 50 12 157 -34 44 -19 53 -28
62 -59 9 -32 8 -38 -11 -54 -12 -10 -38 -17 -60 -17 -29 0 -39 -4 -39 -15 0
-43 94 -172 113 -157 7 5 30 10 52 10 187 3 253 19 238 58 -3 8 0 14 6 14 17
0 9 18 -25 56 -27 31 -30 38 -20 59 6 13 13 23 16 23 18 -1 29 4 34 17 7 19 1
19 -17 0 -13 -13 -17 -12 -29 2 -11 14 -11 15 0 9 10 -6 13 -1 11 20 -1 16 2
37 6 47 4 11 3 23 -4 30 -6 6 -11 26 -11 44 0 25 -4 33 -18 33 -13 0 -18 -7
-17 -27 1 -16 -5 -36 -13 -45 -13 -16 -13 -18 2 -18 9 0 15 4 11 9 -3 5 0 13
6 17 6 3 15 0 20 -7 12 -20 11 -39 -3 -37 -6 2 -14 -8 -17 -20 -6 -22 -13 -24
-81 -29 -105 -6 -103 -16 3 -12 l87 4 0 -31 c0 -28 -2 -30 -32 -28 -48 3 -59
-10 -14 -16 22 -3 41 -11 44 -18 2 -8 -2 -10 -15 -5 -10 3 -15 3 -11 -1 3 -4
12 -8 20 -10 7 -1 19 -6 27 -11 12 -7 11 -10 -5 -17 -17 -7 -16 -8 3 -4 26 5
40 -9 19 -17 -26 -10 -261 -20 -253 -11 5 5 43 12 85 15 75 6 74 6 -24 5 -75
-1 -101 2 -101 12 0 15 -9 13 117 22 l105 7 -104 1 c-102 2 -103 2 -96 25 19
58 14 87 -19 112 -18 14 -38 25 -43 25 -6 0 -17 8 -24 17 -12 14 -12 16 1 9 9
-4 8 -1 -2 7 -10 8 -18 21 -18 30 0 10 11 4 34 -19 l33 -33 84 6 c46 4 96 7
112 7 15 1 27 4 27 8 0 10 -33 9 -135 -2 -64 -7 -85 -5 -103 6 -12 8 -20 19
-17 24 6 10 -29 32 -38 24 -3 -3 -10 11 -17 31 -15 45 -7 55 23 27 13 -12 27
-22 32 -22 5 0 -1 7 -14 16 l-24 17 39 23 c22 13 33 24 27 24 -7 0 -13 7 -13
15 0 25 -38 55 -67 54 -26 -1 -26 -2 6 -9z m-5 -182 c19 -58 13 -78 -8 -27
-22 55 -28 79 -18 79 5 0 16 -23 26 -52z m-54 -4 c0 -8 -4 -12 -10 -9 -5 3
-10 13 -10 21 0 8 5 12 10 9 6 -3 10 -13 10 -21z m160 -234 c0 -5 -7 -13 -16
-18 -13 -7 -13 -13 -3 -36 9 -18 15 -23 20 -14 4 7 11 9 16 5 4 -5 1 -12 -6
-16 -8 -5 -10 -14 -6 -21 6 -9 9 -9 15 0 11 18 260 39 260 22 0 -4 -57 -14
-127 -21 -72 -7 -130 -17 -132 -23 -2 -6 -19 13 -37 43 -35 55 -42 75 -22 63
8 -5 9 -2 5 9 -5 12 -1 17 13 17 11 0 20 -4 20 -10z m280 -109 c-17 -11 -248
-27 -239 -17 6 7 119 19 209 24 31 1 40 -1 30 -7z"/>
<path d="M74 598 l-19 -23 23 19 c21 18 27 26 19 26 -2 0 -12 -10 -23 -22z"/>
<path d="M702 590 c0 -19 2 -27 5 -17 2 9 2 25 0 35 -3 9 -5 1 -5 -18z"/>
<path d="M1398 613 c7 -3 16 -2 19 1 4 3 -2 6 -13 5 -11 0 -14 -3 -6 -6z"/>
<path d="M2531 604 c0 -11 3 -14 6 -6 3 7 2 16 -1 19 -3 4 -6 -2 -5 -13z"/>
<path d="M1253 603 c25 -4 40 -23 17 -23 -5 0 -10 -8 -10 -19 0 -26 37 -30 78
-10 28 15 30 17 12 22 -13 3 -18 1 -14 -6 3 -7 0 -5 -8 4 -19 23 -53 39 -80
38 -19 -2 -19 -3 5 -6z"/>
<path d="M1760 595 c-7 -9 -10 -18 -6 -22 3 -3 6 -1 6 5 0 7 15 12 37 12 40 0
41 4 2 13 -18 5 -31 2 -39 -8z"/>
<path d="M1210 580 c0 -5 5 -10 11 -10 5 0 7 5 4 10 -3 6 -8 10 -11 10 -2 0
-4 -4 -4 -10z"/>
<path d="M1191 562 c8 -13 19 -17 33 -14 19 5 19 4 7 -12 -8 -9 -12 -18 -10
-21 3 -2 10 5 17 16 11 16 10 20 -5 25 -10 3 -26 10 -36 15 -15 8 -16 7 -6 -9z"/>
<path d="M1599 563 c-13 -16 -12 -17 4 -4 16 13 21 21 13 21 -2 0 -10 -8 -17
-17z"/>
<path d="M2541 564 c0 -11 3 -14 6 -6 3 7 2 16 -1 19 -3 4 -6 -2 -5 -13z"/>
<path d="M1605 520 c-9 -16 -13 -30 -11 -30 3 0 14 14 26 30 12 17 17 30 11
30 -6 0 -17 -13 -26 -30z"/>
<path d="M1155 520 c10 -11 20 -20 23 -20 3 0 -3 9 -13 20 -10 11 -20 20 -23
20 -3 0 3 -9 13 -20z"/>
<path d="M1678 514 c-21 -13 -38 -26 -38 -29 0 -6 69 35 76 46 7 13 4 11 -38
-17z"/>
<path d="M701 514 c0 -11 3 -14 6 -6 3 7 2 16 -1 19 -3 4 -6 -2 -5 -13z"/>
<path d="M1191 514 c0 -11 -4 -24 -8 -28 -4 -3 -8 -14 -9 -23 -2 -14 -1 -14
12 -1 10 9 14 27 11 44 -2 19 -5 21 -6 8z"/>
<path d="M1258 523 c7 -3 16 -2 19 1 4 3 -2 6 -13 5 -11 0 -14 -3 -6 -6z"/>
<path d="M1417 519 c7 -7 15 -10 18 -7 3 3 -2 9 -12 12 -14 6 -15 5 -6 -5z"/>
<path d="M1900 520 c-11 -7 -7 -10 17 -10 17 0 35 5 38 10 8 13 -35 13 -55 0z"/>
<path d="M2555 501 c3 -18 6 -61 7 -95 l1 -61 7 55 c4 30 7 48 8 39 1 -9 11
-19 22 -22 27 -7 25 5 -5 33 -14 13 -30 38 -35 54 l-10 31 5 -34z"/>
<path d="M1701 486 c-13 -14 -36 -30 -52 -36 -16 -7 -29 -17 -29 -22 0 -6 11
-3 25 6 14 9 36 23 49 32 13 8 27 22 30 30 8 20 3 18 -23 -10z"/>
<path d="M1498 488 c6 -6 18 -8 28 -6 14 3 12 5 -9 10 -19 3 -25 2 -19 -4z"/>
<path d="M427 444 c6 -68 11 -77 12 -24 0 25 -3 51 -8 59 -5 8 -7 -5 -4 -35z"/>
<path d="M1933 483 c9 -2 25 -2 35 0 9 3 1 5 -18 5 -19 0 -27 -2 -17 -5z"/>
<path d="M369 453 l-24 -28 28 24 c25 23 32 31 24 31 -2 0 -14 -12 -28 -27z"/>
<path d="M871 468 c10 -8 13 -22 9 -38 -4 -17 -8 -21 -14 -12 -4 6 -4 17 -1
22 3 6 1 10 -5 10 -6 0 -10 -10 -8 -22 2 -15 10 -23 22 -23 28 0 29 53 1 66
-17 9 -18 8 -4 -3z"/>
<path d="M1476 454 c-11 -8 -16 -14 -10 -14 13 0 39 18 34 24 -3 2 -14 -2 -24
-10z"/>
<path d="M2075 460 c-3 -5 -2 -10 4 -10 5 0 13 5 16 10 3 6 2 10 -4 10 -5 0
-13 -4 -16 -10z"/>
<path d="M2481 444 c0 -11 3 -14 6 -6 3 7 2 16 -1 19 -3 4 -6 -2 -5 -13z"/>
<path d="M1980 439 c0 -5 5 -7 10 -4 6 3 10 8 10 11 0 2 -4 4 -10 4 -5 0 -10
-5 -10 -11z"/>
<path d="M2350 439 c0 -5 11 -9 25 -9 14 0 25 2 25 4 0 2 -11 6 -25 8 -14 3
-25 1 -25 -3z"/>
<path d="M2427 444 c-9 -16 18 -37 40 -31 15 4 14 5 -4 6 -12 0 -23 9 -25 19
-2 11 -6 13 -11 6z"/>
<path d="M2135 430 c3 -5 8 -10 11 -10 2 0 4 5 4 10 0 6 -5 10 -11 10 -5 0 -7
-4 -4 -10z"/>
<path d="M1569 409 l-24 -20 30 17 c39 24 40 24 28 24 -6 0 -21 -9 -34 -21z"/>
<path d="M1955 420 c-22 -4 -35 -8 -30 -10 11 -2 26 -1 130 10 l70 7 -65 0
c-36 0 -83 -3 -105 -7z"/>
<path d="M2303 380 c0 -30 2 -43 4 -27 2 15 2 39 0 55 -2 15 -4 2 -4 -28z"/>
<path d="M324 398 l-19 -23 23 19 c21 18 27 26 19 26 -2 0 -12 -10 -23 -22z"/>
<path d="M2417 397 c-11 -29 -9 -43 4 -30 6 6 9 19 7 29 -3 18 -4 18 -11 1z"/>
<path d="M895 370 c-4 -6 -11 -8 -16 -5 -5 4 -9 1 -9 -5 0 -7 7 -9 15 -6 8 3
22 9 30 12 11 4 13 2 9 -9 -3 -8 -1 -18 5 -22 7 -4 11 4 11 19 0 19 -5 26 -19
26 -11 0 -23 -5 -26 -10z"/>
<path d="M338 249 l-87 -118 -93 -4 -93 -3 103 -2 c66 -1 102 2 102 9 0 5 24
40 53 77 63 79 112 151 106 156 -2 1 -43 -50 -91 -115z"/>
<path d="M1479 353 c-13 -16 -12 -17 4 -4 16 13 21 21 13 21 -2 0 -10 -8 -17
-17z"/>
<path d="M279 343 c-13 -16 -12 -17 4 -4 16 13 21 21 13 21 -2 0 -10 -8 -17
-17z"/>
<path d="M840 347 c-11 -8 -14 -22 -10 -47 6 -37 10 -31 24 33 7 31 7 31 -14
14z"/>
<path d="M2005 350 c-4 -6 27 -10 87 -10 64 0 88 3 78 10 -20 13 -157 13 -165
0z"/>
<path d="M2518 343 c-5 -19 -13 -23 -46 -23 -24 0 -47 7 -57 16 -15 15 -15 14
-9 -11 4 -16 3 -26 -2 -22 -18 11 -85 17 -79 7 3 -5 17 -10 30 -10 36 0 55
-10 55 -30 0 -21 19 -30 61 -30 21 0 28 -4 24 -12 -4 -7 1 -4 9 6 18 22 29 73
24 107 l-3 24 -7 -22z m-65 -47 c3 -7 -4 -18 -14 -24 -16 -10 -19 -9 -19 3 0
8 6 15 13 16 10 0 10 2 0 6 -7 2 -13 9 -13 14 0 12 27 0 33 -15z"/>
<path d="M2443 343 c9 -2 23 -2 30 0 6 3 -1 5 -18 5 -16 0 -22 -2 -12 -5z"/>
<path d="M2552 320 c0 -14 2 -19 5 -12 2 6 2 18 0 25 -3 6 -5 1 -5 -13z"/>
<path d="M81 326 c10 -9 109 -14 104 -6 -4 6 -29 10 -57 10 -28 0 -49 -2 -47
-4z"/>
<path d="M40 312 c0 -14 26 -22 68 -21 29 0 33 2 17 8 -38 16 -85 23 -85 13z"/>
<path d="M910 307 c-31 -14 -68 -47 -53 -47 5 0 20 9 33 20 13 11 29 20 37 20
7 0 13 5 13 10 0 12 2 12 -30 -3z"/>
<path d="M2290 306 c0 -2 7 -7 16 -10 8 -3 12 -2 9 4 -6 10 -25 14 -25 6z"/>
<path d="M183 292 c-13 -2 -23 -7 -23 -11 0 -11 39 -11 46 0 8 13 4 16 -23 11z"/>
<path d="M1350 285 c-7 -9 -11 -17 -9 -20 3 -2 10 5 17 15 14 24 10 26 -8 5z"/>
<path d="M2563 265 c1 -5 -5 -10 -13 -10 -20 0 -109 -137 -115 -177 -5 -29 -3
-28 11 10 10 26 22 42 32 42 15 0 15 2 2 10 -13 8 -12 10 3 10 9 0 17 -6 17
-13 0 -8 10 -22 23 -33 22 -19 22 -19 5 2 -10 11 -18 28 -18 36 0 9 -6 19 -12
21 -10 4 -10 6 0 6 6 1 12 8 12 18 0 14 2 15 18 1 25 -22 78 -48 85 -41 4 3
-13 15 -36 27 -55 28 -60 52 -13 71 39 17 47 31 17 31 -11 0 -19 -5 -18 -11z"/>
<path d="M83 263 c9 -2 25 -2 35 0 9 3 1 5 -18 5 -19 0 -27 -2 -17 -5z"/>
<path d="M393 230 c0 -25 2 -35 4 -22 2 12 2 32 0 45 -2 12 -4 2 -4 -23z"/>
<path d="M2618 263 c7 -3 16 -2 19 1 4 3 -2 6 -13 5 -11 0 -14 -3 -6 -6z"/>
<path d="M1430 239 c-22 -18 -22 -19 -3 -10 12 6 25 16 28 21 9 15 3 12 -25
-11z"/>
<path d="M1360 241 c0 -6 4 -13 10 -16 6 -3 7 1 4 9 -7 18 -14 21 -14 7z"/>
<path d="M2001 231 c-7 -4 12 -9 40 -10 29 -1 51 0 48 2 -10 9 -77 15 -88 8z"/>
<path d="M2411 224 c0 -11 3 -14 6 -6 3 7 2 16 -1 19 -3 4 -6 -2 -5 -13z"/>
<path d="M1359 194 l-36 -25 13 -49 c18 -71 31 -90 60 -90 20 0 25 4 20 15 -5
14 -3 14 17 0 20 -14 23 -14 40 7 10 13 16 18 13 11 -8 -15 26 -34 42 -24 15
9 83 8 99 -2 6 -4 14 -3 17 2 3 4 33 7 66 5 38 -2 59 0 55 6 -3 6 -2 10 4 10
5 0 13 -5 16 -10 9 -14 27 -1 19 13 -4 7 5 1 21 -13 16 -14 25 -18 20 -10 -6
12 -5 12 5 3 7 -6 18 -10 24 -8 6 2 24 6 40 10 l29 6 -34 35 c-21 22 -42 34
-60 34 l-27 0 15 41 c7 23 12 44 9 46 -6 6 -180 -16 -221 -28 -20 -6 -4 -7 48
-4 52 4 77 2 77 -5 0 -6 -5 -8 -12 -4 -6 4 -4 -3 5 -17 25 -35 21 -46 -15 -43
-111 10 -178 11 -184 3 -3 -5 0 -8 7 -7 8 2 14 -7 15 -22 l1 -24 -23 28 c-23
26 -52 28 -38 3 5 -8 3 -8 -7 1 -15 14 -43 17 -34 3 3 -5 0 -13 -6 -17 -8 -4
-9 -3 -5 4 7 12 -42 38 -52 27 -3 -3 0 -5 6 -5 7 0 12 -4 12 -10 0 -14 -28 -1
-35 17 -8 22 12 33 60 33 22 1 65 7 95 15 l55 15 -65 -6 c-36 -3 -67 -6 -70
-7 -3 0 -22 3 -42 7 -39 8 -47 23 -26 44 18 18 7 13 -33 -14z m408 -46 c-3 -8
-6 -5 -6 6 -1 11 2 17 5 13 3 -3 4 -12 1 -19z"/>
<path d="M2470 200 c0 -5 -7 -10 -16 -10 -8 0 -13 -3 -10 -8 2 -4 -2 -16 -10
-27 -13 -18 -14 -17 -14 14 0 19 -4 30 -10 26 -6 -4 -8 -11 -5 -16 4 -5 0 -9
-7 -9 -10 0 -10 -2 1 -9 10 -6 12 -19 7 -42 l-6 -34 21 35 c12 19 33 47 47 63
14 15 20 27 14 27 -7 0 -12 -4 -12 -10z"/>
<path d="M974 174 c-18 -14 -18 -14 6 -3 31 14 36 19 24 19 -6 0 -19 -7 -30
-16z"/>
<path d="M2325 160 c3 -5 16 -10 28 -10 18 0 19 2 7 10 -20 13 -43 13 -35 0z"/>
<path d="M910 140 c-9 -6 -10 -10 -3 -10 6 0 15 5 18 10 8 12 4 12 -15 0z"/>
<path d="M2625 140 c-3 -5 -1 -10 4 -10 6 0 11 5 11 10 0 6 -2 10 -4 10 -3 0
-8 -4 -11 -10z"/>
<path d="M915 116 c-21 -13 -33 -26 -27 -30 5 -3 13 1 16 10 4 9 13 14 21 10
8 -3 15 -1 15 4 0 5 8 10 18 12 10 2 13 6 6 10 -6 4 -28 -3 -49 -16z"/>
<path d="M2336 131 c-3 -4 4 -17 17 -27 l22 -19 -18 22 c-19 21 -18 22 10 26
l28 4 -27 2 c-15 0 -29 -3 -32 -8z"/>
<path d="M1001 114 c0 -11 3 -14 6 -6 3 7 2 16 -1 19 -3 4 -6 -2 -5 -13z"/>
<path d="M1181 94 c0 -11 3 -14 6 -6 3 7 2 16 -1 19 -3 4 -6 -2 -5 -13z"/>
<path d="M410 81 c-8 -6 -18 -7 -22 -5 -4 3 -8 -5 -8 -18 1 -20 2 -21 11 -5 5
9 17 17 24 17 8 0 15 5 15 10 0 12 -1 12 -20 1z"/>
<path d="M2280 86 c0 -2 8 -10 18 -17 15 -13 16 -12 3 4 -13 16 -21 21 -21 13z"/>
<path d="M461 54 c0 -11 3 -14 6 -6 3 7 2 16 -1 19 -3 4 -6 -2 -5 -13z"/>
<path d="M1081 54 c0 -11 3 -14 6 -6 3 7 2 16 -1 19 -3 4 -6 -2 -5 -13z"/>
<path d="M1163 55 c-3 -9 -3 -18 -1 -21 3 -3 8 4 11 16 6 23 -1 27 -10 5z"/>
<path d="M778 43 c7 -3 16 -2 19 1 4 3 -2 6 -13 5 -11 0 -14 -3 -6 -6z"/>
</g>
</svg>
